<?xml version="1.0" standalone="no"?>
<!DOCTYPE svg PUBLIC "-//W3C//DTD SVG 1.1//EN" "http://www.w3.org/Graphics/SVG/1.1/DTD/svg11.dtd">
<svg id="Untitled-Page%201" viewBox="0 0 61 61" style="background-color:#ffffff00" version="1.1"
	xmlns="http://www.w3.org/2000/svg" xmlns:xlink="http://www.w3.org/1999/xlink" xml:space="preserve"
	x="0px" y="0px" width="61px" height="61px"
>
	<g id="Layer%201">
		<path id="Ellipse" d="M 0.5 30.5 C 0.5 13.9313 13.9313 0.5 30.5 0.5 C 47.0687 0.5 60.5 13.9313 60.5 30.5 C 60.5 47.0687 47.0687 60.5 30.5 60.5 C 13.9313 60.5 0.5 47.0687 0.5 30.5 Z" fill="#2d389d"/>
		<path d="M 53.625 11.75 L 50.2813 7.875 L 37.8125 22.0313 L 38.625 23 C 38.625 23 51.0313 13.6875 53.625 11.75 ZM 57.0625 16.4063 L 55.6875 14.0313 L 39.875 25 L 40.625 25.125 L 57.0625 16.4063 ZM 7.125 49.3125 L 10.9688 53.25 L 23.0625 39.0313 L 22.25 38.0625 C 22.25 38.0625 9.7188 47.375 7.125 49.3125 ZM 4.1875 44.7188 L 5.5625 47.0938 L 20.75 36.25 L 20.5 35.875 L 4.1875 44.7188 ZM 28.5 30.5 C 28.5 29.3954 29.3954 28.5 30.5 28.5 C 31.6046 28.5 32.5 29.3954 32.5 30.5 C 32.5 31.6046 31.6046 32.5 30.5 32.5 C 29.3954 32.5 28.5 31.6046 28.5 30.5 ZM 21.5 30.5 C 21.5 35.4706 25.5294 39.5 30.5 39.5 C 35.4706 39.5 39.5 35.4706 39.5 30.5 C 39.5 25.5294 35.4706 21.5 30.5 21.5 C 25.5294 21.5 21.5 25.5294 21.5 30.5 Z" fill="#ffffff"/>
	</g>
</svg>