<?xml version="1.0" standalone="no"?>
<!-- Generator: Adobe Fireworks 10, Export SVG Extension by Aaron Beall (http://fireworks.abeall.com) . Version: 0.6.1  -->
<!DOCTYPE svg PUBLIC "-//W3C//DTD SVG 1.1//EN" "http://www.w3.org/Graphics/SVG/1.1/DTD/svg11.dtd">
<svg id="logo_pentagram%20256x256.fw%20%281%29-Page%201" viewBox="0 0 986 258" style="background-color:#ffffff00" version="1.1"
	xmlns="http://www.w3.org/2000/svg" xmlns:xlink="http://www.w3.org/1999/xlink" xml:space="preserve"
	x="0px" y="0px" width="986px" height="258px"
>
	<g id="Layer%201">
		<rect x="877.6684" y="135.2448" width="20.7369" height="121.7252" fill="#a2291d" rx="10.3684" ry="10.3684"/>
		<rect x="910.3289" y="105.0736" width="20.7369" height="121.7252" fill="#a2291d" rx="10.3684" ry="10.3684"/>
		<rect x="820.6421" y="92.589" width="20.7369" height="121.7252" fill="#a2291d" rx="10.3684" ry="10.3684"/>
		<path id="Ellipse" d="M 788 100 C 788 45.3231 832.3231 1 887 1 C 941.6769 1 986 45.3231 986 100 C 986 154.6769 941.6769 199 887 199 C 832.3231 199 788 154.6769 788 100 Z" fill="#a2291d"/>
		<path id="Ellipse2" d="M 808.7184 99.6025 C 808.7184 142.9845 843.7657 178.1516 887 178.1516 C 930.2343 178.1516 965.2816 142.9845 965.2816 99.6025 C 965.2816 56.2205 930.2343 21.0533 887 21.0533 C 843.7657 21.0533 808.7184 56.2205 808.7184 99.6025 Z" fill="#ffffff"/>
		<path id="Ellipse3" d="M 814.9395 99.6025 C 814.9395 139.5369 847.2015 171.9093 887 171.9093 C 926.7985 171.9093 959.0605 139.5369 959.0605 99.6025 C 959.0605 59.668 926.7985 27.2956 887 27.2956 C 847.2015 27.2956 814.9395 59.668 814.9395 99.6025 Z" fill="#a2291d"/>
		<path d="M 820.077 71.3664 C 830.3733 46.8252 853.6862 29.1338 881.3414 26.994 C 875.5155 44.2854 867.3 67.8707 867.3 67.8707 L 856.4131 67.8707 L 820.077 71.3664 Z" fill="#f7941d"/>
		<path d="M 814.421 99.6025 C 814.421 93.7997 815.0977 88.1563 816.3755 82.7457 C 833.6979 94.4001 852.2658 106.8852 852.2658 106.8852 L 850.7105 112.0871 L 851.2289 120.4102 C 851.2289 120.4102 844.8908 137.3954 838.748 154.0043 C 823.8223 140.6656 814.421 121.2361 814.421 99.6025 Z" fill="#6c679f"/>
		<path d="M 924.8447 161.7577 C 913.8254 168.5277 900.8674 172.4295 887 172.4295 C 873.3661 172.4295 860.6102 168.6566 849.7125 162.0959 L 885.9631 133.1549 L 924.8447 161.7577 Z" fill="#2d389d"/>
		<path d="M 957.85 83.734 C 958.9812 88.8421 959.579 94.1525 959.579 99.6025 C 959.579 120.8456 950.5148 139.9635 936.0556 153.276 L 919.6605 111.827 L 957.85 83.734 Z" fill="#253d51"/>
		<path d="M 890.686 26.8665 C 918.5505 28.2648 942.2752 45.4319 953.1791 69.655 L 909.2921 70.9919 L 906.1816 60.588 L 900.9974 60.0678 L 890.686 26.8665 Z" fill="#297d85"/>
		<path d="M 924.9458 108.594 L 920.9022 96.1095 L 942.5126 80.3553 L 888.4645 80.3553 L 885.6987 67.8707 L 980.8057 67.8707 L 924.9458 108.594 ZM 891.2822 137.046 L 901.7828 129.3913 L 922.587 146.2456 L 914.6215 125.6512 L 903.9135 93.6411 L 914.9014 87.1855 L 946.2529 178.9293 L 891.2822 137.046 ZM 850.9697 111.6528 L 861.517 119.3412 L 852.0765 146.5681 L 896.7904 113.6867 L 906.3448 122.1555 L 828.4106 179.257 L 850.9697 111.6528 ZM 861.841 67.8707 L 857.7973 80.3553 L 834.8054 80.3553 L 877.1656 111.2392 L 872.0488 123.0736 L 793.9175 67.8707 L 861.841 67.8707 ZM 886.8522 41.3356 L 882.6764 54.2365 L 882.6701 54.2094 L 882.2823 55.4511 L 871.1 89.9816 L 858.4117 88.7643 L 886.8522 0.9375 L 907.5139 64.7495 L 894.4341 64.7495 L 886.8522 41.3356 Z" fill="#ffffff"/>
	</g>
	<g id="Layer%202">
		<g visibility="hidden">
			<rect x="876.6859" y="136.4329" width="20.4924" height="121.0671" fill="#a2291d" rx="10.2462" ry="10.2462"/>
			<rect x="908.9614" y="106.4247" width="20.4924" height="121.0676" fill="#a2291d" rx="10.2462" ry="10.2462"/>
			<rect x="820.8688" y="94.0075" width="20.4924" height="121.0676" fill="#a2291d" rx="10.2462" ry="10.2462"/>
			<path id="Ellipse4" d="M 789 95.5861 C 789 41.1855 833.0992 1 887.5 1 C 941.9008 1 986 48.0992 986 102.4999 C 986 156.9007 941.9008 201 887.5 201 C 833.0992 201 789 149.9868 789 95.5861 Z" fill="#a2291d"/>
			<path id="Ellipse5" d="M 807.429 102.2343 C 807.429 58.1311 843.2773 22.3793 887.4999 22.3793 C 931.7224 22.3793 967.571 58.1311 967.571 102.2343 C 967.571 146.3375 931.7224 182.0892 887.4999 182.0892 C 843.2773 182.0892 807.429 146.3375 807.429 102.2343 Z" fill="#ffffff"/>
			<path id="Ellipse6" d="M 815.4395 102.4999 C 815.4395 62.7015 847.7015 30.4395 887.5 30.4395 C 927.2986 30.4395 959.5604 62.7015 959.5604 102.4999 C 959.5604 142.2984 927.2986 174.5605 887.5 174.5605 C 847.7015 174.5605 815.4395 142.2984 815.4395 102.4999 Z" fill="#a2291d"/>
			<path d="M 820.5769 130.64 C 830.8733 155.0974 854.186 172.7286 881.8414 174.8611 C 876.0155 157.6287 867.8 134.1237 867.8 134.1237 L 856.9132 134.1237 L 820.5769 130.64 Z" fill="#f7941d"/>
			<path d="M 814.921 102.4999 C 814.921 108.283 815.5975 113.9072 816.8756 119.2993 C 834.1978 107.6846 852.7659 95.2421 852.7659 95.2421 L 851.2106 90.0579 L 851.729 81.7631 C 851.729 81.7631 845.3909 64.8358 839.2478 48.2834 C 824.3222 61.5767 814.921 80.94 814.921 102.4999 Z" fill="#6c679f"/>
			<path d="M 925.3448 40.5564 C 914.3253 33.8096 901.3674 29.9211 887.5 29.9211 C 873.8662 29.9211 861.1104 33.6812 850.2125 40.2194 L 886.4631 69.0618 L 925.3448 40.5564 Z" fill="#2d389d"/>
			<path d="M 958.35 118.3143 C 959.4812 113.2238 960.0789 107.9314 960.0789 102.4999 C 960.0789 81.3292 951.0148 62.2765 936.5557 49.0092 L 920.1605 90.3171 L 958.35 118.3143 Z" fill="#253d51"/>
			<path d="M 891.186 174.9881 C 919.0505 173.5947 942.775 156.4861 953.6791 132.3455 L 909.7921 131.0131 L 906.6816 141.3815 L 901.4974 141.9 L 891.186 174.9881 Z" fill="#297d85"/>
			<path d="M 926.0715 94.6511 L 922.0278 107.0931 L 942.3634 121.2474 L 888.3153 121.2474 L 886.1987 134.1237 L 981.3058 134.1237 L 926.0715 94.6511 ZM 892.0392 64.8185 L 902.5398 72.4472 L 923.0872 56.0157 L 915.1215 76.54 L 904.4136 108.4411 L 915.4014 114.8746 L 946.7527 23.4434 L 892.0392 64.8185 ZM 851.4893 89.1364 L 862.2484 82.108 L 852.5767 55.6943 L 897.2904 88.4637 L 906.8448 80.0237 L 828.9108 23.1168 L 851.4893 89.1364 ZM 861.657 133.9227 L 857.6132 121.4808 L 835.3904 121.2474 L 877.6655 90.9028 L 872.5488 79.1088 L 794.4174 134.1237 L 861.657 133.9227 ZM 887.3523 160.5684 L 883.1763 147.7114 L 883.1702 147.7384 L 882.7823 146.501 L 871.6 112.0881 L 858.9116 113.3013 L 887.3523 200.8289 L 907.6237 137.7253 L 894.5441 137.7253 L 887.3523 160.5684 Z" fill="#ffffff"/>
		</g>
		<path d="M 759.9742 102.1031 L 732.2563 102.0841 L 724.1066 153.698 L 734.2452 190.3748 L 762.77 190.4995 L 763.0868 180.3636 L 770.4584 152.7815 L 760.033 105.8242 L 759.9742 102.1031 ZM 763.2827 59.8422 L 745.2296 50.7333 L 725.5508 64.7612 L 724.1066 83.6839 L 745.7715 95.7948 L 768.1575 80.2794 L 763.2827 59.8422 ZM 540.1409 109.3693 L 560.0001 103.5417 L 529.8501 160.3093 L 503.5325 190.4717 L 571.3047 189.8982 L 584.7728 210.1694 L 608.5369 218.5 L 611.7517 183.9763 L 615.9924 174.5326 L 595.9559 162.9628 L 564.8926 170.2521 L 558.2131 165.7396 L 604.5923 99.4055 L 605.8707 86.164 L 497.6088 86.164 L 498.2606 97.7039 L 519.1987 122.9031 L 540.1409 109.3693 ZM 717.3607 152.6242 L 689.1969 122.0909 L 715.5554 94.7237 L 694.7939 78.1555 L 656.5195 134.938 L 660.9821 105.6169 L 651.416 84.6133 L 651.7415 53.6199 L 621.0906 54.6448 L 611.7415 111.5516 L 619.1487 175.7097 L 617.3904 190.2689 L 656.4703 190.1416 L 656.5195 157.0919 L 663.9219 152.9956 L 684.1412 178.8735 L 679.7524 190.4717 L 727.2325 190.4717 L 717.3607 152.6242 ZM 450.5933 174.6647 L 439.2198 165.97 L 440.1229 149.8757 L 452.5789 141.7357 L 462.8698 145.2495 L 463.7729 169.1151 L 450.5933 174.6647 ZM 500.0604 178.9203 L 500.7833 123.2352 L 489.4091 96.4104 L 464.8553 86.431 L 431.457 87.7164 L 406.5423 103.4407 L 418.4584 124.7159 L 431.8182 111.395 L 447.1641 103.4407 L 461.6064 113.8003 C 461.6064 113.8003 461.2446 125.2706 460.704 123.9755 L 440.1229 123.2352 L 407.8065 143.9547 L 399.5474 163.6482 L 420.6078 190.0535 L 448.1901 190.4717 L 463.052 184.8401 L 462.3211 191.0323 L 502.9736 190.1416 L 500.0604 178.9203 ZM 393.1429 152.6242 L 364.9792 122.0909 L 391.3376 94.7237 L 371.1085 79.2584 L 332.3023 134.938 L 335.1904 105.8948 L 327.575 79.5688 L 325.7252 52.9109 L 294.3992 52.9109 L 289.6957 109.9896 L 294.9308 175.7097 L 284.7765 190.8188 L 329.097 190.8188 L 332.3023 157.0919 L 339.7027 152.9956 L 359.9228 178.8735 L 355.639 190.8188 L 403.1192 190.8188 L 393.1429 152.6242 ZM 274.6036 105.5911 L 247.3434 105.0229 L 236.2675 154.7455 L 246.2678 191.1489 L 274.9653 191.4784 L 284.8563 138.2599 L 274.6036 105.5911 ZM 277.8525 59.6088 L 259.7996 50.5 L 240.122 64.5281 L 238.677 83.4508 L 260.3422 95.5616 L 282.7288 80.0463 L 277.8525 59.6088 ZM 231.5498 97.2477 L 200.3165 86.431 L 180.725 100.6693 L 179.059 92.942 L 142.3434 92.1528 L 146.0633 112.0125 L 145.3357 176.5081 L 136.231 191.4784 L 199.3152 191.4784 L 183.5932 176.3427 L 180.725 151.4467 L 182.5325 120.2963 L 192.734 114.7148 L 205.9135 123.1763 L 205.9135 139.0232 L 220.538 148.5659 L 241.8406 120.2963 L 231.5498 97.2477 ZM 85.6472 131.9604 L 75.7928 133.0289 L 59.4035 128.7552 L 60.8444 89.93 L 78.6746 86.9028 L 101.8567 109.8771 L 89.8408 131.9604 L 85.6472 131.9604 ZM 121.3075 77.1073 L 61.5563 57.4422 L 0.4584 79.657 L 17.4394 110.2026 L 18.1763 190.7314 L 73.0056 190.7314 L 59.4035 168.1138 L 60.3038 153.1537 L 91.0504 158.1399 L 134.3181 141.3994 L 140.2466 112.9794 L 125.5012 77.1073 L 121.3075 77.1073 Z" fill="#233444"/>
		<rect visibility="hidden" x="770.2705" y="20.0246" width="17.1774" height="227.7" fill="#ffffff"/>
	</g>
</svg>